REM GENRE Hardcore
REM DATE 2006
REM COMMENT "DCue v1.4dev"
PERFORMER "Various"
TITLE "Clubland X-Treme Hardcore 3"
FILE "m218406.wav" WAVE
	TRACK 01 AUDIO
		TITLE "Untouchable (Hixxy & Squad-E Remix)"
		PERFORMER "Squad-E & Chris Henry"
		INDEX 01 00:00:00
	TRACK 02 AUDIO
		TITLE "Take Me With You"
		PERFORMER "Hixxy"
		INDEX 01 04:28:00
	TRACK 03 AUDIO
		TITLE "Freaks"
		PERFORMER "Hixxy, Sy & Unknown"
		INDEX 01 09:10:00
	TRACK 04 AUDIO
		TITLE "Overload (Hixxy & Re-Con Remix)"
		PERFORMER "VooDoo & Serano"
		INDEX 01 13:30:00
	TRACK 05 AUDIO
		TITLE "Beat Drop"
		PERFORMER "Hixxy & Squad-E"
		INDEX 01 18:55:00
	TRACK 06 AUDIO
		TITLE "More & More (Sy & Unknown Remix)"
		PERFORMER "Hixxy"
		INDEX 01 22:53:00
	TRACK 07 AUDIO
		TITLE "Come Alive"
		PERFORMER "Hixxy & Re-Con"
		INDEX 01 27:13:00
	TRACK 08 AUDIO
		TITLE "Hot Looking Babes"
		PERFORMER "Hixxy & Dougal & Gammer"
		INDEX 01 31:01:00
	TRACK 09 AUDIO
		TITLE "Forever Young (Hixxy Remix)"
		PERFORMER "Anti-Social"
		INDEX 01 34:49:00
	TRACK 10 AUDIO
		TITLE "First Time Meet Up"
		PERFORMER "Hixxy, Sy & Unknown"
		INDEX 01 39:09:00
	TRACK 11 AUDIO
		TITLE "Power Of Love"
		PERFORMER "Hixxy & Re-Con"
		INDEX 01 44:12:00
	TRACK 12 AUDIO
		TITLE "Get Hard"
		PERFORMER "Hixxy & Re-Con"
		INDEX 01 48:32:00
	TRACK 13 AUDIO
		TITLE "Night Life (Hixxy Remix)"
		PERFORMER "Hixxy & Euphony Feat. Donna Marie"
		INDEX 01 52:09:00
	TRACK 14 AUDIO
		TITLE "I'm Hardcore, This Is What I Do"
		PERFORMER "Hixxy & Storm Meet Dougal & Gammer"
		INDEX 01 56:51:00
	TRACK 15 AUDIO
		TITLE "Sacrifice"
		PERFORMER "Hixxy"
		INDEX 01 61:50:00
